<svg width="31" height="33" viewBox="0 0 31 33" fill="none" xmlns="http://www.w3.org/2000/svg">
<path d="M30.3179 22.9305C30.1744 22.5277 30.0067 22.138 29.8472 21.7769C29.6016 21.2215 29.3444 20.665 29.0956 20.1271L29.0759 20.0844C26.857 15.2793 24.4754 10.4085 21.9974 5.60744L21.8922 5.40359C21.6394 4.91332 21.3781 4.40639 21.1099 3.90829C20.7919 3.27793 20.406 2.68403 19.9591 2.13711C19.456 1.53694 18.8271 1.05425 18.1168 0.723082C17.4065 0.391914 16.632 0.22033 15.848 0.220429C15.064 0.220527 14.2896 0.392305 13.5793 0.723652C12.8691 1.055 12.2403 1.53785 11.7374 2.13814C11.291 2.68519 10.9053 3.27896 10.5872 3.90901C10.3167 4.41158 10.0529 4.92321 9.79786 5.418L9.70018 5.60739C7.22207 10.4088 4.84049 15.2796 2.62161 20.0843L2.58928 20.1542C2.3448 20.6834 2.09203 21.2306 1.85053 21.7767C1.69095 22.1375 1.52347 22.5269 1.37981 22.9307C0.968364 24.0308 0.837254 25.2157 0.998267 26.3789C1.16902 27.5544 1.64447 28.6651 2.37752 29.6008C3.11057 30.5365 4.0758 31.2648 5.1776 31.7136C6.00981 32.0503 6.89964 32.2224 7.79762 32.2204C8.0797 32.2203 8.36154 32.2039 8.64173 32.1713C9.77746 32.0266 10.8728 31.657 11.8636 31.0843C13.1632 30.3542 14.4467 29.2842 15.8488 27.7552C17.2509 29.2842 18.5344 30.3542 19.834 31.0843C20.8247 31.6571 21.9201 32.0266 23.0558 32.1713C23.336 32.2039 23.6179 32.2203 23.9 32.2204C24.7979 32.2224 25.6876 32.0503 26.5198 31.7136C27.6216 31.2648 28.5869 30.5365 29.32 29.6008C30.0531 28.6651 30.5286 27.5545 30.6994 26.3789C30.8602 25.2156 30.7291 24.0307 30.3179 22.9305ZM15.8488 24.5974C14.1131 22.3973 12.9993 20.3542 12.6085 18.6414C12.4484 17.9996 12.4106 17.3335 12.4971 16.6777C12.5654 16.197 12.742 15.738 13.0136 15.3352C13.3478 14.9018 13.7773 14.5508 14.2689 14.3093C14.7605 14.0679 15.3011 13.9423 15.849 13.9423C16.397 13.9424 16.9375 14.068 17.4291 14.3096C17.9207 14.5511 18.3501 14.9021 18.6843 15.3355C18.9559 15.7385 19.1325 16.1975 19.2008 16.6783C19.2871 17.3344 19.2492 18.0007 19.0888 18.6427C18.6976 20.3553 17.5841 22.3978 15.8488 24.5974ZM28.6721 26.0893C28.5527 26.9112 28.2202 27.6878 27.7077 28.342C27.1951 28.9963 26.5202 29.5056 25.7498 29.8194C24.9708 30.1315 24.1254 30.2421 23.2922 30.1409C22.4261 30.0293 21.5914 29.7443 20.8384 29.3028C19.6816 28.6529 18.5106 27.6552 17.1929 26.1916C19.2906 23.605 20.6005 21.2209 21.0855 19.0974C21.3038 18.2044 21.3511 17.2783 21.225 16.3679C21.1106 15.5836 20.8194 14.8354 20.3734 14.1797C19.8509 13.4723 19.1693 12.8972 18.3835 12.5009C17.5976 12.1046 16.7295 11.8981 15.849 11.8981C14.9686 11.8981 14.1004 12.1045 13.3145 12.5007C12.5286 12.8969 11.847 13.4719 11.3245 14.1793C10.8785 14.8348 10.5874 15.5828 10.4729 16.3669C10.3467 17.277 10.3938 18.2026 10.6116 19.0953C11.0963 21.2197 12.4063 23.6044 14.5047 26.1918C13.187 27.6552 12.016 28.6529 10.8591 29.3029C10.1061 29.7443 9.27153 30.0294 8.40541 30.1409C7.57211 30.2421 6.72671 30.1315 5.94766 29.8194C5.17727 29.5056 4.50238 28.9963 3.98984 28.3421C3.47731 27.6878 3.14491 26.9112 3.02557 26.0893C2.91078 25.2538 3.00847 24.4029 3.30964 23.615C3.42412 23.2932 3.55809 22.9774 3.72406 22.6022C3.95886 22.0714 4.20803 21.5319 4.44905 21.0102L4.48142 20.9401C6.68789 16.1623 9.05627 11.3186 11.5209 6.54337L11.619 6.35326C11.8699 5.86644 12.1294 5.3631 12.3912 4.87673C12.6416 4.37544 12.9447 3.90214 13.2954 3.46483C13.6061 3.08946 13.9961 2.78724 14.4374 2.57977C14.8788 2.37229 15.3606 2.26469 15.8484 2.26465C16.3362 2.26461 16.8181 2.37214 17.2594 2.57954C17.7008 2.78694 18.0908 3.0891 18.4016 3.46442C18.7525 3.9014 19.0557 4.37454 19.3059 4.87581C19.5653 5.35785 19.8225 5.85666 20.0713 6.33901L20.1767 6.54358C22.6412 11.3183 25.0095 16.1619 27.2162 20.9405L27.2361 20.9835C27.4813 21.514 27.7348 22.0623 27.9735 22.6024C28.1397 22.9781 28.2739 23.2942 28.3881 23.6148C28.6891 24.4028 28.7868 25.2537 28.6721 26.0893Z" fill="#FF385C"/>
</svg>
