      <svg width="41" height="43" viewBox="0 0 41 43" fill="none" xmlns="http://www.w3.org/2000/svg">
<g clip-path="url(#clip0_1_1241)">
<path d="M20.9514 13.4704C23.0104 13.4757 24.9831 14.2981 26.4362 15.7568C27.8894 17.2156 28.7041 19.1914 28.7014 21.2504C28.6945 23.2614 27.9062 25.191 26.503 26.6315C25.0998 28.0721 23.1915 28.9108 21.1814 28.9704H20.9314C18.9204 28.9662 16.9897 28.1804 15.5473 26.7791C14.1049 25.3777 13.2637 23.4705 13.2014 21.4604V21.2104C13.2041 19.1567 14.0218 17.1881 15.4749 15.7368C16.928 14.2856 18.8977 13.4704 20.9514 13.4704ZM22.9014 21.9704H19.0014C19.1514 24.8704 20.1714 27.3104 20.8814 27.4704H20.9514C21.6314 27.4704 22.6714 25.1004 22.8814 22.2404L22.9014 21.9704ZM27.1614 21.9704H24.4014C24.3114 23.9304 23.8714 25.7504 23.2214 27.0504C24.2354 26.654 25.1284 26 25.8123 25.1529C26.4963 24.3059 26.9475 23.2951 27.1214 22.2204L27.1614 21.9704ZM17.4914 21.9704H14.7514C14.8874 23.0943 15.3257 24.1603 16.0195 25.0548C16.7133 25.9494 17.6367 26.6391 18.6914 27.0504C18.0044 25.5736 17.6104 23.9774 17.5314 22.3504L17.5014 21.9704H17.4914ZM18.6914 15.3904L18.5714 15.4404C17.5441 15.8635 16.6479 16.5524 15.9748 17.4364C15.3017 18.3204 14.876 19.3676 14.7414 20.4704H17.4914C17.5814 18.6404 17.9714 16.9304 18.5514 15.6604L18.6914 15.3904ZM20.9414 14.9704C20.2414 14.9704 19.1614 17.4804 19.0014 20.4704H22.9014C22.7514 17.5704 21.7214 15.1304 21.0114 14.9704H20.9414ZM23.2214 15.4004L23.2514 15.4504C23.967 17.0299 24.358 18.737 24.4014 20.4704H27.1514C27.0125 19.3501 26.5742 18.288 25.8826 17.3958C25.191 16.5036 24.2717 15.8143 23.2214 15.4004Z" fill="#222222"/>
</g>
<defs>
<clipPath id="clip0_1_1241">
<rect width="16" height="16" fill="white" transform="translate(12.9514 13.2204)"/>
</clipPath>
</defs>
</svg>